<?xml version="1.0" encoding="UTF-8"?>
<svg id="Capa_1" data-name="Capa 1" xmlns="http://www.w3.org/2000/svg" viewBox="0 0 505.42 512">
  <defs>
    <style>
      .cls-1 {
        stroke-width: 0px;
      }
    </style>
  </defs>
  <path class="cls-1" d="m271.68,0c6.78.95,13.65,1.49,20.33,2.92,14.51,3.1,28.93,6.64,43.38,10.03,2.03.48,4.02,1.15,6.94,1.99-47.3,28.72-76.14,69.45-84.45,123.49-5.85,38.02.89,74.42,19.97,107.87,22.62,39.66,56.04,66.63,99.97,79.63,43.68,12.93,86.03,8.4,127.6-12.39-1.99,7.12-3.55,13.48-5.55,19.71-12.53,39.14-33.14,73.37-62.03,102.68-22.01,22.33-47.29,39.99-75.71,52.98-22.3,10.2-45.6,17.41-70.12,20.18-7.13.8-14.22,1.93-21.33,2.91h-32c-.85-.32-1.68-.82-2.56-.94-10.66-1.43-21.49-2.08-31.97-4.32-38.7-8.26-73.92-24.18-105.23-48.68-21.79-17.05-40.53-36.89-55.83-59.83-21.76-32.64-35.37-68.38-40.67-107.43-3.93-28.97-3.08-57.64,2.65-86.13,6.92-34.42,20.61-66.06,40.84-94.87,25.1-35.74,56.97-63.52,96.13-82.94,24.34-12.07,49.79-20.46,76.79-23.95C225.46,2.04,232.07.97,238.68,0c11,0,22,0,33,0Z"/>
</svg>