<?xml version="1.0" encoding="UTF-8"?>
<svg id="Capa_1" data-name="Capa 1" xmlns="http://www.w3.org/2000/svg" viewBox="0 0 806.61 806.74">
  <defs>
    <style>
      .cls-1 {
        stroke-width: 0px;
      }
    </style>
  </defs>
  <path class="cls-1" d="m598.84,403.19c.27,107.8-87.5,195.64-195.54,195.72-107.89.08-195.76-87.81-195.62-195.65.14-107.94,87.12-195,195.32-195.5,107.63-.5,195.57,87.26,195.83,195.43Z"/>
  <path class="cls-1" d="m0,402.85c65.66-12.39,131.32-24.77,197.31-37.22v75.4c-65.87-12.42-131.59-24.82-197.32-37.22,0-.32,0-.64,0-.96Z"/>
  <path class="cls-1" d="m609.22,365.63c65.99,12.45,131.65,24.84,197.31,37.22.03.31.05.62.08.94-65.68,12.39-131.37,24.79-197.39,37.25v-75.41Z"/>
  <path class="cls-1" d="m403.73,0c12.4,65.72,24.8,131.44,37.25,197.45h-75.43C378,131.46,390.4,65.74,402.8.03l.93-.03Z"/>
  <path class="cls-1" d="m365.55,609.23h75.43c-12.44,65.95-24.84,131.67-37.24,197.39-.31.04-.61.08-.92.11-12.41-65.74-24.81-131.47-37.27-197.51Z"/>
  <path class="cls-1" d="m284.04,230.84c-17.86,17.84-35.41,35.37-53.3,53.24-37.39-54.82-74.95-109.9-112.52-164.99.23-.28.47-.57.7-.85,55,37.51,110.01,75.02,165.11,112.6Z"/>
  <path class="cls-1" d="m688.34,119.07c-37.56,55.06-75.12,110.12-112.51,164.93-17.79-17.82-35.31-35.37-53.18-53.27,54.68-37.29,109.76-74.86,164.84-112.43.28.25.56.51.84.76Z"/>
  <path class="cls-1" d="m687.54,688.37c-55-37.5-110-75-164.57-112.21,17.7-17.66,35.32-35.23,53.18-53.04,37.05,54.32,74.61,109.39,112.18,164.46-.26.26-.52.53-.79.79Z"/>
  <path class="cls-1" d="m118.28,687.53c37.5-55,75-110,112.26-164.64,17.74,17.76,35.33,35.36,53.15,53.19-54.6,37.22-109.66,74.77-164.72,112.31-.23-.29-.46-.57-.7-.86Z"/>
</svg>